<svg width="100" height="21" viewBox="0 0 100 21" fill="none" xmlns="http://www.w3.org/2000/svg">
    <path d="M31.8069 14.8125C32.5526 14.8125 33.2582 14.5502 33.2582 13.7241C33.2582 12.7572 32.3104 12.5351 30.618 12.2125C27.4341 11.6075 25.4783 10.4799 25.4783 7.59644C25.4783 4.55323 28.622 3.24268 31.3225 3.24268C34.3456 3.24268 37.3084 4.51202 37.5305 8.70398H34.024C33.9235 7.01051 32.8753 6.32509 31.1426 6.32509C30.1346 6.32509 29.0662 6.82861 29.0662 7.67484C29.0662 8.52107 29.7305 9.08589 31.7466 9.48891C35.0722 10.1532 36.9265 11.101 36.9265 13.7221C36.9265 16.4839 34.5888 17.7532 31.625 17.7532C28.219 17.7532 26.1637 15.7583 25.9818 12.916H29.5486C29.6099 14.1271 30.5165 14.8125 31.8069 14.8125ZM42.214 6.55021V9.04971H48.2401V11.8919H42.214V14.4507H48.9255V17.5542H38.6471V3.44569H48.9255V6.55021H42.214ZM60.6491 14.3693V17.5532H50.2692V3.44569H53.8773V14.3693H60.6491ZM65.4632 6.55021V9.04971H71.4893V11.8919H65.4632V14.4507H72.1748V17.5542H61.8954V3.44569H72.1737V6.55021H65.4632ZM80.0833 17.7562C75.5486 17.7562 72.9486 14.8949 72.9486 10.5211C72.9486 6.1472 75.5687 3.24469 79.9627 3.24469C83.9124 3.24469 86.231 5.54217 86.6139 8.6869H83.0059C82.7637 7.21554 81.817 6.32911 80.0431 6.32911C77.7657 6.32911 76.5758 7.92107 76.5758 10.4819C76.5758 13.2226 77.8652 14.8145 80.1034 14.8145C82.3416 14.8145 82.9647 13.2829 83.1667 11.8517H86.7747C86.4732 15.8407 83.8521 17.7552 80.0833 17.7562ZM99.4592 6.55021H95.1255V17.5552H91.4984V6.55021H87.1858V3.44569H99.4592V6.55021Z" fill="white"/>
    <path d="M18.9546 0.38916H5.59681C2.80485 0.38916 0.540527 2.65147 0.540527 5.44444C0.540527 8.2364 2.80485 10.4997 5.59681 10.4997H0.540527V20.6103H13.8983C16.6903 20.6103 18.9546 18.3469 18.9546 15.554C18.9546 12.762 16.6913 10.4977 13.8983 10.4977H18.9546V0.38916Z" fill="#38BDF8"/>
</svg>
