<?xml version="1.0" encoding="utf-8"?>
<svg viewBox="10.0458 112.6779 493.5221 287.4092" width="493.522px" height="287.409px" preserveAspectRatio="none" xmlns="http://www.w3.org/2000/svg"><defs><style>@import url(https://fonts.googleapis.com/css2?family=Roboto%3Aital%2Cwght%400%2C100%3B0%2C300%3B0%2C400%3B0%2C500%3B0%2C700%3B0%2C900%3B1%2C100%3B1%2C300%3B1%2C400%3B1%2C500%3B1%2C700%3B1%2C900&amp;display=swap);</style></defs><g transform="matrix(0.8141950368881226, 0, 0, 0.8141950368881226, -35.98369216918945, 55.6826553344726)" style="" id="object-0"><defs/><g transform="translate(878.5 128.14)" stroke="#000" stroke-width="1px"><path d="m-297.5-8.1378 3-6-1-9v-8l3-8h3l2 1 5-4 4 1 3 6 2 9 2 3 4 1 2 4 4 1 2 3-6 6-8 7-1 4-4 5-5 5-2 8-6-9-3-8-3-12z" style="fill: none;"/><path d="m-301.5-4.1378 4-4 3 12 3 8 6 9-1 4-6 2-9 4-2-9 1-13 2-4-1-3v-6z" style="fill: none;"/><path d="m-308.5 31.862 7-1-2-9 1-13 2-4-1-3v-3l-8 1-8 3v5l2 5 1 8h2l2 9 2 2z" style="fill: none;"/><path d="m-308.5 41.862v-10l7-1 15-6 3 1-1 4 3 3 4 3h3l-2-3h3l2 3-1 2-4 3 1 3h-4l-1-3h-3l-5-4-20 5z" style="fill: none;"/><path d="m-289.5 46.862-2-9 3-1 3 3v5l-4 2z" style="fill: none;"/><path d="m-305.5 56.862 12-8h4v-2l-2-9-17 4v4l3 11z" style="fill: none;"/><path d="m-369.5 58.862v-5l7-6-3-9 16-1 9-7v-7l-3-2 13-15 13-4v5l2 5 1 8h2l2 9 2 2v10 4l3 11h4l9-5 2 1-12 9-4-1v-3l-7-2-9-2-1-4-4-1h-6l-12 5h-4l-20 5z" style="fill: none;"/><path d="m-317.5 54.862-2 6 1 6 4 4-6 8 2 5 1-1 6 4 4-7 1-5v-5l-1-4-2-2 1-2 2-1v-3l-11-3z" style="fill: none;"/><path d="m-310.5 93.862-8-9v-1l-2-4 1 6 2 10h7v-2z" style="fill: none;"/><path d="m-359.5 88.862c2 0 39-10 39-10v2l3 15h6v5l-5 2-1-1-5-4-5-11 1 10 2 4h-5l-4-1v-2l1-2-1-3-5-1-3-2-2-3h-4l-1 2-4 1-5 6-2-7z" style="fill: none;"/><path d="m-369.5 53.862-8 8 3 6 2 14 2 8 11-1 39-10 6-8-4-4-1-6 2-6-5-1-1-4-4-1h-6l-12 5h-4l-20 5v-5z" style="fill: none;"/><path d="m-413.5 105.86-5-34 3-1 12-2 4 2h6l6-2 10-7 3 6 2 13-1 11-2 4-6 4v4l-3 1-1 4-1 3h-4l-3-3-2 2h-6l-1-1h-4l-2-3-5-1z" style="fill: none;"/><path d="m-388.5 111.86v4l3 4 9 6 6-1 3-2 5-3v-6l2-3 1-4 5-3 3-4 4-5-1-3 4-1 3 2 2-2-2-1-2-3h-4l-1 2-4 1-5 6-2-7-11 1-2-8-1 10-2 4-6 4v4l-3 1-2 7h-2z" style="fill: none;"/><path d="m-396.5 137.86c2 1 22-3 22-3l49-9 12-4-2-4h-5l-3-3 2-3-3-4 3-1-4-3-5-2-3-2v-2l1-2-1-3-5-1-1-1-2 2-3-2-4 1 1 3-7 9-5 3-1 4-2 3v6l-8 5-6 1-4-3-10 11-6 4z" style="fill: none;"/><path d="m-315.5 103.86-1 5v5l3-4v-5l-2-1z" style="fill: none;"/><path d="m-374.5 134.86 49-9 12-4 1 3-2 3-4 2v1h6l3 1 1 3-2 2-8 2 1 2 3 3v3l-5 2-2 2-6 6v4l-3 1-5 2h-2l-9-8-4-1-7 1-2 2h-3v-3l-2-2-3 1h-10l-5 2-6 4h-13v-3l4-4 5-2 7-6 3-1 6-4 2-2v-3z" style="fill: none;"/><path d="m-388.5 159.86v4l2 2h3l5 6 12 10 3 3 1 3 3 3 2 3h2l1-5 1-2h4l3-3v-3l3-3 3-2v-4l3-4 3-4h-3l-9-8-4-1-7 1-2 2h-3v-3l-2-2-3 1h-10l-5 2-6 4z" style="fill: none;"/><path d="m-415.5 162.86 3-1 11-2h13v4l2 2h3l5 6 15 13 1 3 3 3 2 3-1 3-2 3v13h-6l-1 5h-9l-23 1-3-3-2-11 2-6-8-19-5-17z" style="fill: none;"/><path d="m-429.5 227.86-3-8 13-2 17-2 3 3 23-1h9l1-5h6l4 13 9 12 1 6 10 14 2 3 1 20-2 4-6 1-3-1-5-6-5-1-2-7-2-1-1-4h-3l-3-5v-6l-1-2h-3l-2 1-1-3 2-3v-8l-8-5-7-6-6-1-8 8-4-1-4-7-7-1-3-1-12 2z" style="fill: none;"/><path d="m-443.5 166.86c2 0 16-2 16-2l12-2 5 17 8 19-2 6 2 11-30 4 3 8-5 3h-6l-2-25-1-39z" style="fill: none;"/><path d="m-450.5 235.86 1-2h7l2-3-2-25-1-39-22 1-4 3v6l-6 9 1 15 3 4-1 3-4 4-2 8v4l15-1 5-1 1 6 2 1 2 5 3 2z" style="fill: none;"/><path d="m-504.5 241.86c1-1 2-7 2-7l-1-5 3-5-4-7-3-7v-13h21l12-1v4l3 4-1 3-4 4-2 8v4l15-1 5-1 1 6 2 1 2 5 3 2-2 4-1 1v2l7 2v3l-2 2-4-2-5-4v3l-3 1-5-1-4 2-4-1-4-5-2-2-3 2-6 1-5-2h-11z" style="fill: none;"/><path d="m-507.5 190.86v7h21l12-1-1-11 6-9v-6l4-3v-7l2-3-1-3-2-2 1-4h-8l-2 1h-14l-26 1v2l1 9 1 5 1 23h5v1z" style="fill: none;"/><path d="m-465.5 167.86v-7l2-3 2-5 1-4 2-2h13l7-2 14-2 16-2 9-1 3-2h1l21-3v3l-8 6-3 1-7 6-5 2-4 4v3l-11 2-3 1-28 4-22 1z" style="fill: none;"/><path d="m-458.5 146.86 2-3v-5l1-2h5l5-8 1-2 9-1 6-1v-3h2l2 2 2-1 1-4 3-4v-2h4l2-2v-5l5 1 2 3h4l1 1h6l2-2 3 3h2v4l3 4 5 3-10 11-9 6-39 5-7 2h-13z" style="fill: none;"/><path d="m-445.5 128.86v-7l3-5 1-4-1-2v-4l1-3-1-1v-7l-1-3-1-6v-11h5l2-2 9-2h10l5 34v5l-2 2h-4v2l-3 4-1 4-2 1-2-2h-2v3l-6 1-9 1-1 2z" style="fill: none;"/><path d="m-437.27 73.923 8.7672-2.0604h10l3-1 12-2v-6l6-7v-6l-2-4-2-8-2-2-2 2-6 7-2-1-1-3 4-6 1-1v-6l-2-2v-4l-3-1-4-1-5-3h-2l-3 2v4l-1 1-1 4-1 3h-4l-1 2v5l-2 4v7l2 4 2 3v3 7l-2 4-0.76724 4.0604z" style="fill: none;"/><path d="m-452.5 28.862-1-4-1-3-5-4h-6l-1-1-8-1-4-5 9-4 9-8 2 1-3 4v3l6-1 5 4h7l3-3 9-3 1 3h3l6-1 1 4-1 3-8 1-3-1-5 3h-4l-2 3-3 1-6 9z" style="fill: none;"/><path d="m-450.31 64.979c-0.19397-0.11638-27.194 1.8836-27.194 1.8836l-5-3-2-2v-7l-1-6-9-8-6-2-1-11-1-1 1-4 4-2v-8l3-2 6-2 3 1 7 1 4 5 8 1 1 1h6l5 4 2 10-2 2v4l4-4 3-4-1 5-1 7-2 4 1.194 19.116z" style="fill: none;"/><path d="m-450.5 64.862 6 11v11l1 6 1 3v7l1 1-1 3v4l1 2-1 4-3 5v6l-5 9h-5l-1 2-1 1h-2l-3-9-2-3-5-1-2-3 1-2v-6l-4-1-1-3-8-7-1-9 1-3 3-4 1-3-2-1 1-2 5-3 3-5v-2l-5-6 27-2z" style="fill: none;"/><path d="m-515.5 150.86 25-1h15l2-1h8l-1 4 2 2 1 3 3-7v-2l2-2 2-3v-5l-1 1h-2l-3-9-2-3-5-1-2-3 1-2v-6l-4-1-1-3-8-7-1-9-3-1h-17-25l1 4 7 6 2 1-1 2-1 2 1 3 4 3v28c0 1 1.2155 7.1078 1 7z" style="fill: none;"/><path d="m-536.5 55.862v13l4 11 3 15h42l3 1 1-3 3-4 1-3-2-1 1-2 5-3 3-5v-2l-5-6-5-3-2-2v-7-1l-23 1-29 1z" style="fill: none;"/><path d="m-536.5 55.862v-25l-3-3-1-2 3-3v-6l-2-9-3-14v-13h21l9 6h3l2-1 6 1 2 3 3-1 3 2h5l2-1h3l2 2h8l-9 5-7 7-8 9v8l-4 2-1 4 1 1 1 11 6 2 9 8 1 5-21 1-31 1z" style="fill: none;"/><path d="m-542.5-19.138-32-1-30-2-1 22-2 20 33 2 37 1v-6l-5-23v-13z" style="fill: none;"/><path d="m-607.5 19.862-1 12-3 28 54 3 5 3 9-1 5 3h2v-12-25l-3-3-1-2 3-3-37-1-33-2z" style="fill: none;"/><path d="m-611.5 59.862-2 26 20 2v13l34 2 36 1-5-5-1-4-3-15-4-11v-1h-2l-5-3-9 1-5-3-24-1-30-2z" style="fill: none;"/><path d="m-593.5 100.86-2 41 37 2h42v-28l-4-3-1-3 2-4-3-2-38-1-33-2z" style="fill: none;"/><path d="m-606.5 141.86v6l31 2 1 3-1 24 3 2h5l3 3 6 2 4-1 3 3 7 1 8-1 2 2 3-1 6-1h6l7 4-1-23-1-5-1-9v-2l-1-7h-42l-37-2h-11z" style="fill: none;"/><path d="m-606.5 147.86h-1l-4 61-42-3v3l19 19 3 12 16 10 3-2 5-8 3-1 5 1 5 1 7 6s3 8 3 8l5 9 7 8 1 6 6 10 8 4h7l2 3h3v-6l-2-13 3-8 3-6 6-5 6-1h6l2-3 4-4-1-5 3-2 2 4 3-1 6-3 1-2 1-5-1-5 3-5-4-7-3-7v-21h-5l-7-4h-6l-5 1-4 1-2-2-8 1-7-1-3-3-4 1-6-2-3-3h-5l-3-2 1-24-1-3-31-2z" style="fill: none;"/><path d="m-672.5 134.86-9 76 9 1 2-5 3-1 14 3v-3l42 3 4-61 1-6-30-3-36-4z" style="fill: none;"/><path d="m-664.5 80.862-8 54 66 7h11l2-41v-13l-20-2-23-2-28-3z" style="fill: none;"/><path d="m-685.5 76.862 21 4 51 5 2-26 3-27-30-3-37-7-10 54z" style="fill: none;"/><path d="m-604.5-22.138-1 23-2 19-1 13-30-3-37-7-1 5-3-1-3 1h-12l-2-5-2-1-2-13h-3l-1 2-2-3 1-5 4-8-6-4v-6l-4-2-1-8v-7l2-2 1-6 17 4 36 7 28 4 24 3z" style="fill: none;"/><path d="m-709.5-40.138-8-2-10 39 3 4-1 5-11 12 2 3 1 4-2 3-1 5-4 18 29 7 28 6 7-36-3-1-3 1h-12l-2-5-2-1-2-13h-3l-1 2-2-3 1-5 4-8-6-4v-6l-4-2-1-8v-7l2-2 1-6z" style="fill: none;"/><path d="m-711.5 57.862-14 67 53 10 8-54-21-4 2-13-28-6z" style="fill: none;"/><path d="m-672.5 134.86-9 76-24-4-40-24 1-2 4-1v-3l-2-1v-4l4-4v-4l5-4-2-5-2-5 2-3-1-12h4l2 3 4-1v-5l1-7 53 10z" style="fill: none;"/><path d="m-744.5 180.86-27-4-1-9-6-10-3-2v-3l-2-1h-6l-1-4-4-3-5-2-4-4v-3l2-2-2-5-8-19 1-2h2l1-3-5-4v-7l1-2 3 2 1-3-1-3-3 1-3-2v-7l-4-5v-10l2-2v-6l-2-2v-6l3-2 4-7 1-11 40 15-11 37 44 69 4 10-5 4v4l-4 4v4l2 1v3l-4 1z" style="fill: none;"/><path d="m-781.5 80.862 44 69 2-3-1-12h4l2 3 4-1v-5l1-7 14-67-29-7-30-7-11 37z" style="fill: none;"/><path d="m-810.5 28.862 40 15 30 7 5-23 2-3-1-4-2-3 11-12 1-5-3-4-6-1-11-4h-12l-10-1-4-2h-8l-3-2 1-2 1-3-3-3-1-2-6-1-3 10-10 21-8 12v4 3 3z" style="fill: none;"/><path d="m-789.53-24.138 2.0302-6v-8l1-10v-5s2-2 3-2 10 9 10 9l2 4-3 4-1 5 4 1 2-6 3-3-1-7 2-4-1-6 15 6 34 10-10 39-6-1-11-4h-12l-10-1-4-2h-8l-3-2 2-5-3-3-1-2-6.0302-1z" style="fill: none;"/><path d="m-799.5 190.86 1 5h3l2-3v-3l-3-2h-3v3z" style="fill: none;"/><path d="m-802.5 185.86 3-1-1-1-2 1v1z" fill="none"/><path d="m-810.5 182.86 2-1-1-2-2 1 1 2z" fill="none"/><path d="m-817.66 178.88 1.1552-1.0172-2-1 0.84483 2.0172z" fill="none"/><path d="m-693.25 293.77 3.3736-5.3546-11.961-7.6546-8.0304-4.504-3.0251-10.137-0.60859-40.257-10-1-11-6h-7l-7 6-4-1-2 3 7 10-2 3-4-4h-5l-2 3 1 5 6 3 3 2-2 2h-5l-6 5-1 5 2 5 3 2-1 5 6 2h7v3l-6 4-8 5-8 3-9 3 21-3 6-4 6-5 4-2 2-4-2-3 5-2-1 5h5l1-3 3 1v-5h4l4 6.4447 8.3052 4.7946 7.6368 3.6648z" style="fill: none;"/></g><g style=""><text style="font-family: Roboto; font-size: 8px; line-height: 10px; white-space: pre;"><tspan x="498.078" y="279.527">
   </tspan><tspan x="498.078" y="279.527">North Carolina
  </tspan></text><text style="font-family: Roboto; font-size: 8px; line-height: 10px; white-space: pre;"><tspan x="538.043" y="314.13">
   </tspan><tspan x="538.043" y="314.13">South
   </tspan><tspan x="538.043" y="324.13">Carolina
  </tspan></text><text style="font-family: Roboto; font-size: 8px; line-height: 10px; white-space: pre;"><tspan x="477.723" y="325.877">
   </tspan><tspan x="477.723" y="325.877">Georgia
  </tspan></text><text transform="matrix(.70711 .70711 -.70711 .70711 0 0)" style="font-family: Roboto; font-size: 8px; line-height: 10px; white-space: pre;"><tspan x="613.703" y="-102.512">
   </tspan><tspan x="613.703" y="-102.512">Florida
  </tspan></text><text style="font-family: Roboto; font-size: 8px; line-height: 10px; white-space: pre;"><tspan x="437.442" y="341.197">
   </tspan><tspan x="437.442" y="341.197">Alabama
  </tspan></text><text style="font-family: Roboto; font-size: 8px; line-height: 10px; white-space: pre;"><tspan x="425.252" y="284.781">
   </tspan><tspan x="425.252" y="284.781">Tennessee
  </tspan></text><text transform="matrix(.70711 -.70711 .70711 .70711 0 0)" style="font-family: Roboto; font-size: 8px; line-height: 10px; white-space: pre;"><tspan x="54.6606" y="521.874">
   </tspan><tspan x="54.6606" y="521.874">Mississippi
  </tspan></text><text style="font-family: Roboto; font-size: 8px; line-height: 10px; white-space: pre;"><tspan x="442.539" y="261.66">
   </tspan><tspan x="442.539" y="261.66">Kentucky
  </tspan></text><text style="font-family: Roboto; font-size: 8px; line-height: 10px; white-space: pre;"><tspan x="517.325" y="253.6">
   </tspan><tspan x="517.325" y="253.6">Virginia
  </tspan></text><text transform="matrix(.5 -.86603 .86603 .5 0 0)" style="font-family: Roboto; font-size: 6.9905px; line-height: 8.73812px; white-space: pre;"><tspan x="34.0381" y="556.893">
   </tspan><tspan x="34.0381" y="556.893">West
   </tspan><tspan x="34.0381" y="565.631">Virginia
  </tspan></text><text style="font-family: Roboto; font-size: 8px; line-height: 10px; white-space: pre;"><tspan x="472.337" y="211.131">
   </tspan><tspan x="472.337" y="211.131">Ohio
  </tspan></text><text transform="matrix(.5 -.86603 .86603 .5 0 0)" style="font-family: Roboto; font-size: 8px; line-height: 10px; white-space: pre;"><tspan x="4.6761" y="510.38">
   </tspan><tspan x="4.6761" y="510.38">Indiana
  </tspan></text><text style="font-family: Roboto; font-size: 8px; line-height: 10px; white-space: pre;"><tspan x="403.391" y="223.688">
   </tspan><tspan x="403.391" y="223.688">Illinois
  </tspan></text><text style="font-family: Roboto; font-size: 8px; line-height: 10px; white-space: pre;"><tspan x="506.283" y="199.212">
   </tspan><tspan x="506.283" y="199.212">Pennsylvania
  </tspan></text><text style="font-family: Roboto; font-size: 8px; line-height: 10px; white-space: pre;"><tspan x="541.557" y="165.274">
   </tspan><tspan x="541.557" y="165.274">New
   </tspan><tspan x="541.557" y="175.274">York
  </tspan></text><text style="font-family: Roboto; font-size: 8px; line-height: 10px; white-space: pre;"><tspan x="586.882" y="117.532">
   </tspan><tspan x="586.882" y="117.532">Maine
  </tspan></text><text style="font-family: Roboto; font-size: 8px; line-height: 10px; white-space: pre;"><tspan x="530.701" y="124.447">
   </tspan><tspan x="530.701" y="124.447">Vermont
  </tspan></text><path d="m570.83 134.37-8.5602-7.7636" fill="none" stroke="#000" stroke-width=".65854px"/><text style="font-family: Roboto; font-size: 8px; line-height: 10px; white-space: pre;"><tspan x="599.937" y="144.296">
   </tspan><tspan x="599.937" y="144.296">New Hampshire
  </tspan></text><path d="m590.19 148.83 8.3658-1.914" fill="none" stroke="#000" stroke-width="1px"/><text style="font-family: Roboto; font-size: 8px; line-height: 10px; white-space: pre;"><tspan x="598.767" y="158.804">
   </tspan><tspan x="598.767" y="158.804">Massachusetts
  </tspan></text><path d="m597.69 156.86-11.452 3.8895" fill="none" stroke="#000" stroke-width="1px"/><text style="font-family: Roboto; font-size: 8px; line-height: 10px; white-space: pre;"><tspan x="600.063" y="181.061">
   </tspan><tspan x="600.063" y="181.061">Rhode Island
  </tspan></text><text style="font-family: Roboto; font-size: 8px; line-height: 10px; white-space: pre;"><tspan x="588.938" y="193.483">
   </tspan><tspan x="588.938" y="193.483">Connecticut
  </tspan></text><path d="m590.99 171.12 8.4272 6.6986" fill="none" stroke="#000" stroke-width="1px"/><path d="m583.3 177.48 8.2594 9.8768" fill="none" stroke="#000" stroke-width=".65259px"/><text style="font-family: Roboto; font-size: 8px; line-height: 10px; white-space: pre;"><tspan x="578.754" y="207.281">
   </tspan><tspan x="578.754" y="207.281">New Jersey
  </tspan></text><text style="font-family: Roboto; font-size: 8px; line-height: 10px; white-space: pre;"><tspan x="575.43" y="222.981">
   </tspan><tspan x="575.43" y="222.981">Delaware
  </tspan></text><text style="font-family: Roboto; font-size: 8px; line-height: 10px; white-space: pre;"><tspan x="573.522" y="238.659">
   </tspan><tspan x="573.522" y="238.659">Maryland
  </tspan></text><path d="m578.63 204.04-10.798-5.5223" fill="none" stroke="#000" stroke-width="1px"/><path d="m574.13 219.74-10.499-4.0622" fill="none" stroke="#000" stroke-width="1px"/><path d="m572.84 231.84-23.46-10.47" fill="none" stroke="#000" stroke-width="1px"/><text style="font-family: Roboto; font-size: 8px; line-height: 10px; white-space: pre;"><tspan x="444.104" y="179.138">
   </tspan><tspan x="444.104" y="179.138">Michigan
  </tspan></text><text style="font-family: Roboto; font-size: 8px; line-height: 10px; white-space: pre;"><tspan x="385.74" y="165.123">
   </tspan><tspan x="385.74" y="165.123">Wisconsin
  </tspan></text><text style="font-family: Roboto; font-size: 8px; line-height: 10px; white-space: pre;"><tspan x="378.22" y="366.976">
   </tspan><tspan x="378.22" y="366.976">Louisiana
  </tspan></text><text style="font-family: Roboto; font-size: 8px; line-height: 10px; white-space: pre;"><tspan x="286.527" y="353.495">
   </tspan><tspan x="286.527" y="353.495">Texas
  </tspan></text><text style="font-family: Roboto; font-size: 8px; line-height: 10px; white-space: pre;"><tspan x="208.854" y="301.99">
   </tspan><tspan x="208.854" y="301.99">New
   </tspan><tspan x="208.854" y="311.99">Mexico
  </tspan></text><text style="font-family: Roboto; font-size: 8px; line-height: 10px; white-space: pre;"><tspan x="226.455" y="244.157">
   </tspan><tspan x="226.455" y="244.157">Colorado
  </tspan></text><text style="font-family: Roboto; font-size: 8px; line-height: 10px; white-space: pre;"><tspan x="155.274" y="292.625">
   </tspan><tspan x="155.274" y="292.625">Arizona
  </tspan></text><text style="font-family: Roboto; font-size: 8px; line-height: 10px; white-space: pre;"><tspan x="171.57" y="232.489">
   </tspan><tspan x="171.57" y="232.489">Utah
  </tspan></text><text style="font-family: Roboto; font-size: 8px; line-height: 10px; white-space: pre;"><tspan x="114.956" y="215.634">
   </tspan><tspan x="114.956" y="215.634">Nevada
  </tspan></text><text style="font-family: Roboto; font-size: 8px; line-height: 10px; white-space: pre;"><tspan x="80.383" y="264.037">
   </tspan><tspan x="80.383" y="264.037">California
  </tspan></text><text style="font-family: Roboto; font-size: 8px; line-height: 10px; white-space: pre;"><tspan x="85.1368" y="152.106">
   </tspan><tspan x="85.1368" y="152.106">Washington
  </tspan></text><text style="font-family: Roboto; font-size: 8px; line-height: 10px; white-space: pre;"><tspan x="113.66" y="107.16">
   </tspan><tspan x="113.66" y="107.16">Oregon
  </tspan></text><text style="font-family: Roboto; font-size: 8px; line-height: 10px; white-space: pre;"><tspan x="156.2" y="172.025">
   </tspan><tspan x="156.2" y="172.025">Idaho
  </tspan></text><text style="font-family: Roboto; font-size: 8px; line-height: 10px; white-space: pre;"><tspan x="288.687" y="118.829">
   </tspan><tspan x="288.687" y="118.829">North
   </tspan><tspan x="288.687" y="128.829">Dakota
  </tspan></text><text style="font-family: Roboto; font-size: 8px; line-height: 10px; white-space: pre;"><tspan x="275.451" y="164.743">
   </tspan><tspan x="275.451" y="164.743">South
   </tspan><tspan x="275.451" y="174.743">Dakota
  </tspan></text><text style="font-family: Roboto; font-size: 8px; line-height: 10px; white-space: pre;"><tspan x="193.716" y="118.008">
   </tspan><tspan x="193.716" y="118.008">Montana
  </tspan></text><text style="font-family: Roboto; font-size: 8px; line-height: 10px; white-space: pre;"><tspan x="212.626" y="186.679">
   </tspan><tspan x="212.626" y="186.679">Wyoming
  </tspan></text><text style="font-family: Roboto; font-size: 8px; line-height: 10px; white-space: pre;"><tspan x="292.145" y="210.88">
   </tspan><tspan x="292.145" y="210.88">Nebraska
  </tspan></text><text style="font-family: Roboto; font-size: 8px; line-height: 10px; white-space: pre;"><tspan x="302.085" y="249.343">
   </tspan><tspan x="302.085" y="249.343">Kansas
  </tspan></text><text style="font-family: Roboto; font-size: 8px; line-height: 10px; white-space: pre;"><tspan x="310.675" y="283.244">
   </tspan><tspan x="310.675" y="283.244">Oklahoma
  </tspan></text><text style="font-family: Roboto; font-size: 8px; line-height: 10px; white-space: pre;"><tspan x="342.276" y="130.065">
   </tspan><tspan x="342.276" y="130.065">Minnesota
  </tspan></text><text style="font-family: Roboto; font-size: 8px; line-height: 10px; white-space: pre;"><tspan x="368.459" y="292.446">
   </tspan><tspan x="368.459" y="292.446">Arkansas
  </tspan></text><text style="font-family: Roboto; font-size: 8px; line-height: 10px; white-space: pre;"><tspan x="368.206" y="264.836">
   </tspan><tspan x="368.206" y="264.836">Missouri
  </tspan></text><text style="font-family: Roboto; font-size: 8px; line-height: 10px; white-space: pre;"><tspan x="355.241" y="203.966">
   </tspan><tspan x="355.241" y="203.966">Iowa
  </tspan></text><text style="font-family: Roboto; font-size: 8px; line-height: 10px; white-space: pre;"><tspan x="132.931" y="380.209">
   </tspan><tspan x="132.931" y="380.209">Alaska
  </tspan></text><text style="font-family: Roboto; font-size: 8px; line-height: 10px; white-space: pre;"><tspan x="56.5338" y="333.455">
   </tspan><tspan x="56.5338" y="333.455">Hawaii
  </tspan></text><path d="m534.78 314.2-12.529-10.084" fill="none" stroke="#000" stroke-width="1px"/></g><g><path transform="translate(-132.08 90.364)" d="m546.39 242.69-1.6284-1.0068-1.7525 0.77066 0.45429-1.8598-1.2745-1.4286 1.9091-0.14265 0.96481-1.6536 0.72561 1.7716 1.8708 0.4066-1.4607 1.2376z"/><path transform="translate(-140.02 116.64)" d="m546.39 242.69-1.6284-1.0068-1.7525 0.77066 0.45429-1.8598-1.2745-1.4286 1.9091-0.14265 0.96481-1.6536 0.72561 1.7716 1.8708 0.4066-1.4607 1.2376z"/><path transform="translate(-158.36 59.5)" d="m546.39 242.69-1.6284-1.0068-1.7525 0.77066 0.45429-1.8598-1.2745-1.4286 1.9091-0.14265 0.96481-1.6536 0.72561 1.7716 1.8708 0.4066-1.4607 1.2376z"/><path transform="translate(-157.44 3.8827)" d="m546.39 242.69-1.6284-1.0068-1.7525 0.77066 0.45429-1.8598-1.2745-1.4286 1.9091-0.14265 0.96481-1.6536 0.72561 1.7716 1.8708 0.4066-1.4607 1.2376z"/><path transform="translate(-132.38 -14.147)" d="m546.39 242.69-1.6284-1.0068-1.7525 0.77066 0.45429-1.8598-1.2745-1.4286 1.9091-0.14265 0.96481-1.6536 0.72561 1.7716 1.8708 0.4066-1.4607 1.2376z"/><path transform="translate(-85.627 -59.068)" d="m546.39 242.69-1.6284-1.0068-1.7525 0.77066 0.45429-1.8598-1.2745-1.4286 1.9091-0.14265 0.96481-1.6536 0.72561 1.7716 1.8708 0.4066-1.4607 1.2376z"/><path transform="translate(-170.58 -85.043)" d="m546.39 242.69-1.6284-1.0068-1.7525 0.77066 0.45429-1.8598-1.2745-1.4286 1.9091-0.14265 0.96481-1.6536 0.72561 1.7716 1.8708 0.4066-1.4607 1.2376z"/><path transform="translate(-132.99 -58.457)" d="m546.39 242.69-1.6284-1.0068-1.7525 0.77066 0.45429-1.8598-1.2745-1.4286 1.9091-0.14265 0.96481-1.6536 0.72561 1.7716 1.8708 0.4066-1.4607 1.2376z"/><path transform="translate(-174.55 -35.538)" d="m546.39 242.69-1.6284-1.0068-1.7525 0.77066 0.45429-1.8598-1.2745-1.4286 1.9091-0.14265 0.96481-1.6536 0.72561 1.7716 1.8708 0.4066-1.4607 1.2376z"/><path transform="translate(-196.86 .21561)" d="m546.39 242.69-1.6284-1.0068-1.7525 0.77066 0.45429-1.8598-1.2745-1.4286 1.9091-0.14265 0.96481-1.6536 0.72561 1.7716 1.8708 0.4066-1.4607 1.2376z"/><path transform="translate(-207.56 -24.843)" d="m546.39 242.69-1.6284-1.0068-1.7525 0.77066 0.45429-1.8598-1.2745-1.4286 1.9091-0.14265 0.96481-1.6536 0.72561 1.7716 1.8708 0.4066-1.4607 1.2376z"/><path transform="translate(-217.64 47.276)" d="m546.39 242.69-1.6284-1.0068-1.7525 0.77066 0.45429-1.8598-1.2745-1.4286 1.9091-0.14265 0.96481-1.6536 0.72561 1.7716 1.8708 0.4066-1.4607 1.2376z"/><path transform="translate(-218.56 119.7)" d="m546.39 242.69-1.6284-1.0068-1.7525 0.77066 0.45429-1.8598-1.2745-1.4286 1.9091-0.14265 0.96481-1.6536 0.72561 1.7716 1.8708 0.4066-1.4607 1.2376z"/><path transform="translate(-310.54 38.72)" d="m546.39 242.69-1.6284-1.0068-1.7525 0.77066 0.45429-1.8598-1.2745-1.4286 1.9091-0.14265 0.96481-1.6536 0.72561 1.7716 1.8708 0.4066-1.4607 1.2376z"/><path transform="translate(-294.04 -14.286)" d="m546.39 242.69-1.6284-1.0068-1.7525 0.77066 0.45429-1.8598-1.2745-1.4286 1.9091-0.14265 0.96481-1.6536 0.72561 1.7716 1.8708 0.4066-1.4607 1.2376z"/><path transform="translate(-291.29 -34.927)" d="m546.39 242.69-1.6284-1.0068-1.7525 0.77066 0.45429-1.8598-1.2745-1.4286 1.9091-0.14265 0.96481-1.6536 0.72561 1.7716 1.8708 0.4066-1.4607 1.2376z"/><path transform="translate(-240.56 -76.793)" d="m546.39 242.69-1.6284-1.0068-1.7525 0.77066 0.45429-1.8598-1.2745-1.4286 1.9091-0.14265 0.96481-1.6536 0.72561 1.7716 1.8708 0.4066-1.4607 1.2376z"/><path transform="translate(-241.17 -108.27)" d="m546.39 242.69-1.6284-1.0068-1.7525 0.77066 0.45429-1.8598-1.2745-1.4286 1.9091-0.14265 0.96481-1.6536 0.72561 1.7716 1.8708 0.4066-1.4607 1.2376z"/><path transform="translate(-350.57 -117.74)" d="m546.39 242.69-1.6284-1.0068-1.7525 0.77066 0.45429-1.8598-1.2745-1.4286 1.9091-0.14265 0.96481-1.6536 0.72561 1.7716 1.8708 0.4066-1.4607 1.2376z"/><path transform="translate(-363.41 -37.372)" d="m546.39 242.69-1.6284-1.0068-1.7525 0.77066 0.45429-1.8598-1.2745-1.4286 1.9091-0.14265 0.96481-1.6536 0.72561 1.7716 1.8708 0.4066-1.4607 1.2376z"/><path transform="translate(-398.85 -85.349)" d="m546.39 242.69-1.6284-1.0068-1.7525 0.77066 0.45429-1.8598-1.2745-1.4286 1.9091-0.14265 0.96481-1.6536 0.72561 1.7716 1.8708 0.4066-1.4607 1.2376z"/><path transform="translate(-445.92 -34.621)" d="m546.39 242.69-1.6284-1.0068-1.7525 0.77066 0.45429-1.8598-1.2745-1.4286 1.9091-0.14265 0.96481-1.6536 0.72561 1.7716 1.8708 0.4066-1.4607 1.2376z"/><path transform="translate(-465.78 -32.177)" d="m546.39 242.69-1.6284-1.0068-1.7525 0.77066 0.45429-1.8598-1.2745-1.4286 1.9091-0.14265 0.96481-1.6536 0.72561 1.7716 1.8708 0.4066-1.4607 1.2376z"/><path transform="translate(-457.53 -119.57)" d="m546.39 242.69-1.6284-1.0068-1.7525 0.77066 0.45429-1.8598-1.2745-1.4286 1.9091-0.14265 0.96481-1.6536 0.72561 1.7716 1.8708 0.4066-1.4607 1.2376z"/><path transform="translate(-450.19 -143.72)" d="m546.39 242.69-1.6284-1.0068-1.7525 0.77066 0.45429-1.8598-1.2745-1.4286 1.9091-0.14265 0.96481-1.6536 0.72561 1.7716 1.8708 0.4066-1.4607 1.2376z"/><path transform="translate(-381.44 60.416)" d="m546.39 242.69-1.6284-1.0068-1.7525 0.77066 0.45429-1.8598-1.2745-1.4286 1.9091-0.14265 0.96481-1.6536 0.72561 1.7716 1.8708 0.4066-1.4607 1.2376z"/><path transform="translate(-.062088 -.39556)" d="m546.39 242.69-1.6284-1.0068-1.7525 0.77066 0.45429-1.8598-1.2745-1.4286 1.9091-0.14265 0.96481-1.6536 0.72561 1.7716 1.8708 0.4066-1.4607 1.2376z"/><path transform="translate(4.5217 -23.62)" d="m546.39 242.69-1.6284-1.0068-1.7525 0.77066 0.45429-1.8598-1.2745-1.4286 1.9091-0.14265 0.96481-1.6536 0.72561 1.7716 1.8708 0.4066-1.4607 1.2376z"/><path transform="translate(15.828 -26.676)" d="m546.39 242.69-1.6284-1.0068-1.7525 0.77066 0.45429-1.8598-1.2745-1.4286 1.9091-0.14265 0.96481-1.6536 0.72561 1.7716 1.8708 0.4066-1.4607 1.2376z"/><path transform="translate(19.19 -43.178)" d="m546.39 242.69-1.6284-1.0068-1.7525 0.77066 0.45429-1.8598-1.2745-1.4286 1.9091-0.14265 0.96481-1.6536 0.72561 1.7716 1.8708 0.4066-1.4607 1.2376z"/><path transform="translate(-1.8956 -39.816)" d="m546.39 242.69-1.6284-1.0068-1.7525 0.77066 0.45429-1.8598-1.2745-1.4286 1.9091-0.14265 0.96481-1.6536 0.72561 1.7716 1.8708 0.4066-1.4607 1.2376z"/><path transform="translate(35.997 -66.403)" d="m546.39 242.69-1.6284-1.0068-1.7525 0.77066 0.45429-1.8598-1.2745-1.4286 1.9091-0.14265 0.96481-1.6536 0.72561 1.7716 1.8708 0.4066-1.4607 1.2376z"/><path transform="translate(46.693 -69.153)" d="m546.39 242.69-1.6284-1.0068-1.7525 0.77066 0.45429-1.8598-1.2745-1.4286 1.9091-0.14265 0.96481-1.6536 0.72561 1.7716 1.8708 0.4066-1.4607 1.2376z"/><path transform="translate(49.138 -79.848)" d="m546.39 242.69-1.6284-1.0068-1.7525 0.77066 0.45429-1.8598-1.2745-1.4286 1.9091-0.14265 0.96481-1.6536 0.72561 1.7716 1.8708 0.4066-1.4607 1.2376z"/><path transform="translate(43.637 -91.766)" d="m546.39 242.69-1.6284-1.0068-1.7525 0.77066 0.45429-1.8598-1.2745-1.4286 1.9091-0.14265 0.96481-1.6536 0.72561 1.7716 1.8708 0.4066-1.4607 1.2376z"/><path transform="translate(29.886 -102.46)" d="m546.39 242.69-1.6284-1.0068-1.7525 0.77066 0.45429-1.8598-1.2745-1.4286 1.9091-0.14265 0.96481-1.6536 0.72561 1.7716 1.8708 0.4066-1.4607 1.2376z"/><path transform="translate(55.249 -107.96)" d="m546.39 242.69-1.6284-1.0068-1.7525 0.77066 0.45429-1.8598-1.2745-1.4286 1.9091-0.14265 0.96481-1.6536 0.72561 1.7716 1.8708 0.4066-1.4607 1.2376z"/><path transform="translate(21.023 -77.709)" d="m546.39 242.69-1.6284-1.0068-1.7525 0.77066 0.45429-1.8598-1.2745-1.4286 1.9091-0.14265 0.96481-1.6536 0.72561 1.7716 1.8708 0.4066-1.4607 1.2376z"/><path transform="translate(-63.013 -23.926)" d="m546.39 242.69-1.6284-1.0068-1.7525 0.77066 0.45429-1.8598-1.2745-1.4286 1.9091-0.14265 0.96481-1.6536 0.72561 1.7716 1.8708 0.4066-1.4607 1.2376z"/><path transform="translate(-46.511 -3.4514)" d="m546.39 242.69-1.6284-1.0068-1.7525 0.77066 0.45429-1.8598-1.2745-1.4286 1.9091-0.14265 0.96481-1.6536 0.72561 1.7716 1.8708 0.4066-1.4607 1.2376z"/><path transform="translate(-96.017 -15.981)" d="m546.39 242.69-1.6284-1.0068-1.7525 0.77066 0.45429-1.8598-1.2745-1.4286 1.9091-0.14265 0.96481-1.6536 0.72561 1.7716 1.8708 0.4066-1.4607 1.2376z"/><path transform="translate(-78.904 3.8827)" d="m546.39 242.69-1.6284-1.0068-1.7525 0.77066 0.45429-1.8598-1.2745-1.4286 1.9091-0.14265 0.96481-1.6536 0.72561 1.7716 1.8708 0.4066-1.4607 1.2376z"/><path transform="translate(-8.0074 26.191)" d="m546.39 242.69-1.6284-1.0068-1.7525 0.77066 0.45429-1.8598-1.2745-1.4286 1.9091-0.14265 0.96481-1.6536 0.72561 1.7716 1.8708 0.4066-1.4607 1.2376z"/><path transform="translate(-29.399 55.221)" d="m546.39 242.69-1.6284-1.0068-1.7525 0.77066 0.45429-1.8598-1.2745-1.4286 1.9091-0.14265 0.96481-1.6536 0.72561 1.7716 1.8708 0.4066-1.4607 1.2376z"/><path transform="translate(-65.764 62.556)" d="m546.39 242.69-1.6284-1.0068-1.7525 0.77066 0.45429-1.8598-1.2745-1.4286 1.9091-0.14265 0.96481-1.6536 0.72561 1.7716 1.8708 0.4066-1.4607 1.2376z"/><path transform="translate(-60.569 109)" d="m546.39 242.69-1.6284-1.0068-1.7525 0.77066 0.45429-1.8598-1.2745-1.4286 1.9091-0.14265 0.96481-1.6536 0.72561 1.7716 1.8708 0.4066-1.4607 1.2376z"/><path transform="translate(-88.988 83.947)" d="m546.39 242.69-1.6284-1.0068-1.7525 0.77066 0.45429-1.8598-1.2745-1.4286 1.9091-0.14265 0.96481-1.6536 0.72561 1.7716 1.8708 0.4066-1.4607 1.2376z"/><path transform="translate(-99.684 36.581)" d="m546.39 242.69-1.6284-1.0068-1.7525 0.77066 0.45429-1.8598-1.2745-1.4286 1.9091-0.14265 0.96481-1.6536 0.72561 1.7716 1.8708 0.4066-1.4607 1.2376z"/><path transform="translate(-371.35 167.68)" d="m546.39 242.69-1.6284-1.0068-1.7525 0.77066 0.45429-1.8598-1.2745-1.4286 1.9091-0.14265 0.96481-1.6536 0.72561 1.7716 1.8708 0.4066-1.4607 1.2376z"/><path transform="translate(-474.95 68.362)" d="m546.39 242.69-1.6284-1.0068-1.7525 0.77066 0.45429-1.8598-1.2745-1.4286 1.9091-0.14265 0.96481-1.6536 0.72561 1.7716 1.8708 0.4066-1.4607 1.2376z"/></g></g></svg>
